<?xml version="1.0" encoding="utf-8"?>
<!-- Generator: Adobe Illustrator 16.0.0, SVG Export Plug-In . SVG Version: 6.00 Build 0)  -->
<!DOCTYPE svg PUBLIC "-//W3C//DTD SVG 1.1//EN" "http://www.w3.org/Graphics/SVG/1.1/DTD/svg11.dtd">
<svg version="1.1" id="Layer_1" xmlns="http://www.w3.org/2000/svg" xmlns:xlink="http://www.w3.org/1999/xlink" x="0px" y="0px"
	 width="200px" height="50px" viewBox="0 0 200 50" enable-background="new 0 0 200 50" xml:space="preserve">
<g>
	<path fill="#FFFFFF" d="M69.554,11.36l-6.05,12.758c-0.672,1.455-1.33,2.896-1.971,4.323c-0.641,1.428-1.298,2.868-1.971,4.323
		h-0.183c0-1.455-0.016-2.903-0.046-4.344c-0.03-1.44-0.076-2.875-0.138-4.302l-0.55-12.758h-7.7L53.42,38.64h8.892L77.621,11.36
		H69.554z"/>
	<polygon fill="#FFFFFF" points="74.962,38.64 93.571,38.64 94.763,33.017 83.487,33.017 84.771,27.393 94.03,27.393 95.222,21.769 
		85.963,21.769 86.971,16.984 97.88,16.984 99.072,11.36 80.921,11.36 	"/>
	<path fill="#FFFFFF" d="M122.814,12.977c-0.947-0.574-2.063-0.987-3.346-1.238c-1.283-0.252-2.674-0.378-4.171-0.378h-9.809
		L99.53,38.64h7.334l2.017-9.4h3.07l3.438,9.4h7.699l-4.445-10.45c1.039-0.363,2.001-0.832,2.888-1.405
		c0.886-0.574,1.65-1.26,2.292-2.057c0.641-0.797,1.138-1.707,1.489-2.728s0.527-2.162,0.527-3.42c0-1.315-0.268-2.435-0.802-3.357
		C124.503,14.298,123.762,13.55,122.814,12.977z M117.154,22.755c-0.963,0.797-2.438,1.196-4.424,1.196h-2.657l1.558-7.303h2.658
		c1.375,0,2.438,0.238,3.186,0.714c0.748,0.475,1.123,1.217,1.123,2.224C118.598,20.901,118.116,21.958,117.154,22.755z"/>
	<path fill="#FFFFFF" d="M151.302,23.888c0.764-1.385,1.146-3.071,1.146-5.057c0-1.371-0.274-2.532-0.824-3.483
		c-0.551-0.951-1.299-1.721-2.245-2.308c-0.947-0.587-2.063-1.014-3.347-1.28c-1.283-0.266-2.658-0.399-4.125-0.399h-9.809
		l-5.959,27.279h7.334l1.925-8.896h3.025c1.863,0,3.644-0.196,5.34-0.588c1.695-0.393,3.185-1.021,4.469-1.889
		C149.515,26.398,150.538,25.273,151.302,23.888z M143.67,23.279c-1.022,0.784-2.481,1.175-4.376,1.175h-2.705l1.65-7.806h2.658
		c1.375,0,2.438,0.259,3.186,0.777c0.749,0.517,1.123,1.322,1.123,2.413C145.206,21.349,144.694,22.496,143.67,23.279z"/>
	<path fill="#FFFFFF" d="M161.683,11.36L146.099,38.64h8.066l3.07-6.212h8.205l0.184,6.212h7.7l-2.842-27.279H161.683z
		 M159.757,27.393l1.559-3.189c0.642-1.315,1.229-2.609,1.765-3.882s1.107-2.581,1.719-3.924h0.184c0,1.399,0.015,2.721,0.046,3.967
		c0.03,1.245,0.076,2.524,0.137,3.84l0.093,3.189H159.757z"/>
	<path fill="#FFFFFF" d="M192.116,11.36l-3.575,5.96c-0.642,1.063-1.229,2.077-1.765,3.043c-0.534,0.965-1.106,1.993-1.718,3.084
		h-0.185c-0.183-1.092-0.351-2.106-0.503-3.043c-0.153-0.938-0.321-1.938-0.505-3.001l-0.963-6.043h-7.607l4.72,17.711l-2.063,9.568
		h7.288l2.108-9.568L200,11.36H192.116z"/>
	<path fill="#FFFFFF" d="M0,49.876h38.781L49.65,0.124H10.869L0,49.876z M19.019,11.36h4.215l1.535-7.1h3.081l-1.535,7.1h3.105
		l1.602-7.1h3.081l-1.602,7.1h4.669l-1.192,5.624H25.099l-1.034,4.785h9.254l-1.191,5.624h-9.259l-0.363,1.589l-0.872,4.035h11.227
		l-1.191,5.623h-5.231l-1.193,6.604h-3.081l1.193-6.604h-2.938l-1.427,6.604h-3.081l1.427-6.604H13.06L19.019,11.36z"/>
</g>
</svg>
